<?xml version="1.0" standalone="no"?>
<!DOCTYPE svg PUBLIC "-//W3C//DTD SVG 20010904//EN"
 "http://www.w3.org/TR/2001/REC-SVG-20010904/DTD/svg10.dtd">
<svg version="1.0" xmlns="http://www.w3.org/2000/svg"
 width="700.000000pt" height="700.000000pt" viewBox="0 0 700.000000 700.000000"
 preserveAspectRatio="xMidYMid meet">
<metadata>
Created by potrace 1.14, written by Peter Selinger 2001-2017
</metadata>
<g transform="translate(0.000000,700.000000) scale(0.100000,-0.100000)"
fill="#000000" stroke="none">
<path d="M444 6990 c-220 -29 -405 -217 -434 -443 -13 -97 -13 -5997 0 -6094
30 -231 212 -413 443 -443 95 -12 5997 -13 6092 0 234 30 415 211 445 443 13
97 13 5997 0 6094 -18 137 -89 260 -199 343 -77 58 -150 88 -246 100 -86 12
-6015 11 -6101 0z m4867 -845 c557 -97 930 -626 834 -1180 -39 -224 -145 -420
-310 -574 -210 -196 -454 -280 -815 -281 -136 0 -264 -36 -478 -132 -111 -51
-138 -59 -168 -54 -70 14 -142 107 -127 165 5 20 -6 20 -1188 24 -1298 4
-1234 1 -1404 60 -518 179 -803 746 -638 1272 113 359 424 633 796 700 57 11
418 13 1743 14 1428 1 1684 -1 1755 -14z m-1703 -2411 c113 -56 160 -197 105
-309 -20 -39 -71 -93 -105 -111 l-28 -15 0 -154 0 -154 538 -3 537 -3 55 -26
c74 -34 120 -76 156 -141 l29 -53 3 -592 3 -593 -541 0 -540 0 0 -155 0 -154
433 -3 c426 -3 433 -3 474 -26 63 -33 106 -74 139 -134 l29 -53 3 -202 3 -203
-1401 0 -1401 0 3 203 3 202 29 53 c33 60 76 101 139 134 41 23 48 23 475 26
l432 3 0 154 0 155 -540 0 -541 0 3 593 3 592 29 53 c36 65 82 107 156 141
l55 26 538 3 537 3 0 154 0 154 -27 15 c-16 8 -42 29 -59 48 -62 65 -83 137
-64 217 36 150 199 224 338 155z"/>
<path d="M1805 6003 c-335 -71 -605 -344 -680 -687 -26 -119 -17 -322 20 -436
43 -133 90 -218 184 -329 99 -116 279 -227 446 -273 l80 -23 1235 -5 c977 -4
1240 -8 1257 -18 38 -21 56 -68 49 -124 -4 -26 -4 -48 -1 -48 3 0 37 16 76 36
99 49 207 90 319 120 77 21 132 27 290 34 229 11 310 28 446 95 250 123 422
344 479 617 20 91 19 259 -1 356 -35 173 -110 308 -244 442 -134 134 -269 209
-442 244 -69 14 -263 16 -1760 15 -1452 -1 -1693 -3 -1753 -16z m715 -433 l0
-210 220 0 220 0 0 210 0 210 125 0 125 0 0 -560 0 -560 -125 0 -125 0 0 240
0 240 -220 0 -220 0 -2 -237 -3 -238 -125 0 -125 0 -3 558 -2 557 130 0 130 0
0 -210z m2060 115 l0 -95 -115 0 -115 0 0 95 0 95 115 0 115 0 0 -95z m420
-63 c0 -140 -22 -371 -56 -584 l-6 -38 -59 0 c-40 0 -59 4 -59 13 0 6 -14 118
-30 247 -21 163 -30 279 -30 378 l0 142 120 0 120 0 0 -158z m-1135 -132 c83
-13 196 -71 240 -122 145 -170 135 -474 -21 -618 -155 -143 -433 -143 -589 1
-168 155 -166 491 3 640 98 86 229 122 367 99z m715 -425 l0 -405 -115 0 -115
0 0 405 0 405 115 0 115 0 0 -405z m430 -280 l0 -125 -125 0 -125 0 0 125 0
125 125 0 125 0 0 -125z"/>
<path d="M3693 5295 c-67 -41 -88 -95 -88 -230 0 -99 3 -115 25 -155 14 -24
41 -55 60 -68 30 -20 44 -23 105 -20 85 4 123 27 157 96 20 40 23 62 23 152
-1 113 -16 160 -67 207 -54 50 -148 58 -215 18z"/>
<path d="M2865 2491 c-83 -38 -134 -117 -135 -209 0 -130 95 -226 225 -226
132 0 225 95 225 232 0 158 -171 269 -315 203z"/>
<path d="M3939 2482 c-77 -40 -119 -111 -119 -200 0 -132 94 -226 225 -226
130 0 225 96 225 226 -1 174 -177 280 -331 200z"/>
</g>
</svg>
